<svg xmlns="http://www.w3.org/2000/svg" xmlns:xlink="http://www.w3.org/1999/xlink" width="500" zoomAndPan="magnify" viewBox="0 0 375 374.999991" height="500" preserveAspectRatio="xMidYMid meet" version="1.0"><defs><filter x="0%" y="0%" width="100%" height="100%" id="c4d99df558"><feColorMatrix values="0 0 0 0 1 0 0 0 0 1 0 0 0 0 1 0 0 0 1 0" color-interpolation-filters="sRGB"/></filter><g/><clipPath id="a0e13ef362"><path d="M 88.261719 48.566406 L 201 48.566406 L 201 188 L 88.261719 188 Z M 88.261719 48.566406 " clip-rule="nonzero"/></clipPath><clipPath id="669920f0f8"><path d="M 174 52 L 272.761719 52 L 272.761719 184 L 174 184 Z M 174 52 " clip-rule="nonzero"/></clipPath><mask id="b4824d0d36"><g filter="url(#c4d99df558)"><rect x="-37.5" width="450" fill="#000000" y="-37.499999" height="449.999989" fill-opacity="0.7373"/></g></mask><clipPath id="0004a3f4a9"><rect x="0" width="310" y="0" height="16"/></clipPath></defs><g clip-path="url(#a0e13ef362)"><path fill="#000000" d="M 190.933594 140.144531 L 175.335938 125.480469 C 175.335938 125.480469 186.207031 98.582031 190.933594 90.164062 C 192.953125 86.5625 195.367188 81.816406 196.761719 76.566406 C 196.886719 76.589844 197.011719 76.601562 197.140625 76.601562 C 199.175781 76.601562 200.828125 73.652344 200.828125 70.019531 C 200.828125 67.285156 199.894531 64.941406 198.566406 63.949219 C 198.566406 63.949219 196.722656 65.300781 196.601562 67.953125 C 196.601562 67.953125 196.09375 65.066406 198.414062 62.585938 C 198.019531 59.675781 197.3125 57.964844 195.5625 55.863281 C 192.460938 52.136719 187.714844 50.890625 180.511719 50.5625 C 173.757812 50.253906 168.886719 49.457031 163.167969 48.835938 C 161.199219 48.625 162.039062 52.390625 162.570312 53.300781 C 163.632812 55.136719 165.144531 55.746094 170.523438 57.320312 C 170.523438 57.320312 166.214844 57.316406 161.816406 54.851562 C 160.816406 56.644531 160.265625 59.003906 160.078125 61.679688 C 163.601562 65.304688 162.847656 69.609375 162.847656 69.609375 C 162.671875 65.765625 160 63.808594 160 63.808594 C 158.566406 64.710938 157.539062 67.148438 157.539062 70.019531 C 157.539062 73.652344 159.1875 76.601562 161.222656 76.601562 C 161.417969 76.601562 161.609375 76.570312 161.796875 76.519531 C 163.386719 82.542969 165.882812 88.183594 168.667969 91.523438 C 167.191406 92.941406 165.785156 94.296875 164.472656 95.3125 C 172.746094 94.933594 179.183594 100.632812 179.183594 100.632812 C 179.183594 100.632812 167.734375 93.699219 158.867188 98.800781 C 146.582031 105.863281 133.257812 100.632812 133.257812 100.632812 C 133.257812 100.632812 145.296875 102.789062 158.050781 96.890625 C 158.324219 96.765625 158.59375 96.648438 158.867188 96.539062 C 152.1875 93.976562 145.988281 90.132812 129.855469 97.925781 C 129.855469 97.925781 125.671875 99.679688 123.277344 103.367188 C 123.277344 103.367188 123.933594 100.003906 127.582031 96.980469 C 124.382812 95.851562 118.355469 94.484375 113.167969 97.621094 C 113.167969 97.621094 108.984375 99.371094 106.589844 103.066406 C 106.589844 103.066406 108.40625 98.574219 113.488281 95.308594 C 114.253906 90.746094 116.632812 80.46875 123.164062 74.160156 C 123.46875 73.863281 123.746094 73.605469 124.011719 73.382812 C 121.910156 73.773438 120.214844 74.601562 120.214844 74.601562 C 123.617188 71.460938 126.667969 72.726562 128.890625 72.535156 C 131.523438 72.308594 134.675781 73.644531 136.285156 73.414062 C 138.441406 73.097656 141.832031 72.726562 142.667969 72.265625 C 144.992188 70.976562 143.402344 68.332031 141.574219 68.246094 C 139.199219 68.140625 145.953125 68.320312 145.765625 65.601562 C 145.476562 61.390625 145.953125 60.050781 144.707031 58.398438 C 144.148438 57.65625 138.449219 52.503906 136.707031 52.507812 C 131.976562 52.519531 124.765625 56.917969 120.886719 58.65625 C 117.613281 60.125 116.105469 63.085938 114.660156 65.433594 C 111.902344 69.914062 88.265625 99.21875 88.507812 108.097656 C 88.769531 117.746094 107.9375 127.691406 127.363281 121.242188 C 127.363281 121.242188 131.980469 119.109375 134.554688 117.207031 C 134.554688 117.207031 131.78125 120.410156 128.367188 122.527344 C 129.460938 123.914062 130.765625 125.714844 132.210938 127.800781 C 136.828125 133.5625 145.335938 142.570312 156.3125 147.042969 C 156.3125 147.042969 150.429688 146.3125 142.273438 143.070312 C 144.109375 145.941406 145.960938 148.847656 147.746094 151.652344 C 149.941406 155.101562 152.777344 158.105469 156.128906 160.453125 C 159 162.464844 162.148438 164.273438 165.527344 165.652344 C 165.527344 165.652344 161.289062 165.125 155.023438 162.984375 C 156.925781 165.894531 158.523438 168.253906 159.640625 169.730469 C 162.398438 173.378906 166.925781 176.789062 165.707031 187.527344 L 190.933594 140.144531 " fill-opacity="1" fill-rule="nonzero"/></g><g clip-path="url(#669920f0f8)"><path fill="#ffffff" d="M 246.363281 65.433594 C 244.917969 63.085938 243.414062 60.125 240.136719 58.65625 C 236.261719 56.917969 229.046875 52.519531 224.320312 52.507812 C 222.578125 52.503906 216.875 57.65625 216.316406 58.398438 C 215.070312 60.050781 215.546875 61.390625 215.257812 65.601562 C 215.070312 68.320312 221.824219 68.140625 219.449219 68.246094 C 217.625 68.332031 216.035156 70.976562 218.355469 72.265625 C 219.191406 72.726562 222.582031 73.097656 224.738281 73.414062 C 226.347656 73.644531 229.5 72.308594 232.132812 72.535156 C 234.355469 72.726562 237.40625 71.460938 240.808594 74.601562 C 240.808594 74.601562 239.113281 73.773438 237.011719 73.382812 C 237.277344 73.605469 237.554688 73.863281 237.859375 74.160156 C 244.394531 80.46875 246.769531 90.746094 247.535156 95.308594 C 252.617188 98.574219 254.433594 103.066406 254.433594 103.066406 C 252.042969 99.371094 247.855469 97.621094 247.855469 97.621094 C 242.667969 94.484375 236.644531 95.851562 233.441406 96.980469 C 237.09375 100.003906 237.746094 103.367188 237.746094 103.367188 C 235.355469 99.679688 231.167969 97.925781 231.167969 97.925781 C 223.960938 94.445312 218.738281 93.285156 214.566406 93.296875 L 211.351562 98.964844 C 221.898438 102.210938 230.726562 100.632812 230.726562 100.632812 C 230.726562 100.632812 220.792969 104.53125 210.167969 101.046875 L 197.285156 123.753906 L 210.859375 136.695312 L 174.710938 177.507812 C 174.710938 177.507812 201.59375 189.519531 220.019531 178.160156 C 207.652344 166.890625 206.425781 161.335938 208.175781 155.097656 C 210.550781 146.636719 225.109375 124.269531 225.109375 124.269531 C 244.539062 130.71875 272.257812 117.746094 272.519531 108.097656 C 272.757812 99.21875 249.121094 69.914062 246.363281 65.433594 " fill-opacity="1" fill-rule="nonzero"/></g><g fill="#ffffff" fill-opacity="1"><g transform="translate(-2.982363, 228.084195)"><g><path d="M 12.507812 0 L 12.507812 -16.71875 L 31.9375 -16.71875 L 31.9375 -24.058594 L 12.507812 -24.058594 L 12.507812 -32.777344 L 32.355469 -32.777344 L 32.355469 -40.113281 L 3.96875 -40.113281 L 3.96875 0 Z M 12.507812 0 "/></g></g></g><g fill="#ffffff" fill-opacity="1"><g transform="translate(34.360581, 228.084195)"><g><path d="M 12.507812 0 L 12.507812 -40.113281 L 3.96875 -40.113281 L 3.96875 0 Z M 12.507812 0 "/></g></g></g><g fill="#ffffff" fill-opacity="1"><g transform="translate(53.844133, 228.084195)"><g><path d="M 21.832031 0 L 21.832031 -32.597656 L 33.5 -32.597656 L 33.5 -40.113281 L 1.503906 -40.113281 L 1.503906 -32.597656 L 13.230469 -32.597656 L 13.230469 0 Z M 21.832031 0 "/></g></g></g><g fill="#ffffff" fill-opacity="1"><g transform="translate(91.848531, 228.084195)"><g><path d="M 41.378906 0 L 25.921875 -40.113281 L 15.214844 -40.113281 L -0.300781 0 L 9.082031 0 L 11.609375 -6.917969 L 29.53125 -6.917969 L 32.054688 0 Z M 27.183594 -14.3125 L 13.894531 -14.3125 L 20.570312 -32.71875 Z M 27.183594 -14.3125 "/></g></g></g><g fill="#ffffff" fill-opacity="1"><g transform="translate(135.986448, 228.084195)"><g><path d="M 29.46875 0 L 29.46875 -7.519531 L 12.507812 -7.519531 L 12.507812 -40.113281 L 3.96875 -40.113281 L 3.96875 0 Z M 29.46875 0 "/></g></g></g><g fill="#ffffff" fill-opacity="1"><g transform="translate(170.443015, 228.084195)"><g><path d="M 29.46875 0 L 29.46875 -7.519531 L 12.507812 -7.519531 L 12.507812 -40.113281 L 3.96875 -40.113281 L 3.96875 0 Z M 29.46875 0 "/></g></g></g><g fill="#ffffff" fill-opacity="1"><g transform="translate(204.899581, 228.084195)"><g><path d="M 32.355469 0 L 32.355469 -7.398438 L 12.507812 -7.398438 L 12.507812 -16.71875 L 31.9375 -16.71875 L 31.9375 -24.058594 L 12.507812 -24.058594 L 12.507812 -32.777344 L 32.355469 -32.777344 L 32.355469 -40.113281 L 3.96875 -40.113281 L 3.96875 0 Z M 32.355469 0 "/></g></g></g><g fill="#ffffff" fill-opacity="1"><g transform="translate(242.964106, 228.084195)"><g><path d="M 39.875 0 L 39.875 -40.113281 L 31.335938 -40.113281 L 31.335938 -14.132812 L 12.75 -40.113281 L 3.96875 -40.113281 L 3.96875 0 L 12.507812 0 L 12.507812 -26.945312 L 31.636719 0 Z M 39.875 0 "/></g></g></g><g fill="#ffffff" fill-opacity="1"><g transform="translate(289.807984, 228.084195)"><g><path d="M 2.042969 -20.027344 C 2.042969 -7.398438 11.667969 0.78125 23.394531 0.78125 C 30.671875 0.78125 36.386719 -2.226562 40.476562 -6.796875 L 40.476562 -22.132812 L 21.351562 -22.132812 L 21.351562 -14.796875 L 32.054688 -14.796875 L 32.054688 -9.921875 C 30.3125 -8.359375 27.0625 -6.855469 23.394531 -6.855469 C 16.117188 -6.855469 10.824219 -12.449219 10.824219 -20.027344 C 10.824219 -27.605469 16.117188 -33.199219 23.394531 -33.199219 C 27.605469 -33.199219 31.035156 -30.972656 32.898438 -28.148438 L 39.996094 -31.996094 C 36.925781 -36.746094 31.695312 -40.777344 23.394531 -40.777344 C 11.667969 -40.777344 2.042969 -32.71875 2.042969 -20.027344 Z M 2.042969 -20.027344 "/></g></g></g><g fill="#ffffff" fill-opacity="1"><g transform="translate(336.110697, 228.084195)"><g><path d="M 32.355469 0 L 32.355469 -7.398438 L 12.507812 -7.398438 L 12.507812 -16.71875 L 31.9375 -16.71875 L 31.9375 -24.058594 L 12.507812 -24.058594 L 12.507812 -32.777344 L 32.355469 -32.777344 L 32.355469 -40.113281 L 3.96875 -40.113281 L 3.96875 0 Z M 32.355469 0 "/></g></g></g><g mask="url(#b4824d0d36)"><g transform="matrix(1, 0, 0, 1, 0, 235)"><g clip-path="url(#0004a3f4a9)"><g fill="#000000" fill-opacity="1"><g transform="translate(1.504551, 10.840387)"><g><path d="M 3.265625 0 C 3.171875 0 3.125 -0.0390625 3.125 -0.125 L 3.125 -2.921875 L -0.078125 -6.890625 C -0.109375 -6.921875 -0.125 -6.957031 -0.125 -7 C -0.125 -7.070312 -0.0703125 -7.109375 0.03125 -7.109375 L 0.609375 -7.109375 C 0.710938 -7.109375 0.796875 -7.070312 0.859375 -7 L 2.71875 -4.71875 L 3.53125 -3.703125 L 3.578125 -3.703125 L 6.25 -7 C 6.289062 -7.039062 6.328125 -7.066406 6.359375 -7.078125 C 6.398438 -7.097656 6.445312 -7.109375 6.5 -7.109375 L 7.09375 -7.109375 C 7.1875 -7.109375 7.234375 -7.070312 7.234375 -7 C 7.234375 -6.96875 7.21875 -6.929688 7.1875 -6.890625 L 3.984375 -2.921875 L 3.984375 -0.125 C 3.984375 -0.0390625 3.9375 0 3.84375 0 Z M 3.265625 0 "/></g></g></g><g fill="#000000" fill-opacity="1"><g transform="translate(10.903735, 10.840387)"><g><path d="M 2.875 0.03125 C 2.28125 0.03125 1.832031 -0.117188 1.53125 -0.421875 C 1.238281 -0.722656 1.09375 -1.164062 1.09375 -1.75 L 1.09375 -5.359375 C 1.09375 -5.941406 1.238281 -6.382812 1.53125 -6.6875 C 1.832031 -6.988281 2.28125 -7.140625 2.875 -7.140625 L 6.625 -7.140625 C 7.21875 -7.140625 7.660156 -6.988281 7.953125 -6.6875 C 8.253906 -6.382812 8.40625 -5.941406 8.40625 -5.359375 L 8.40625 -1.75 C 8.40625 -1.164062 8.253906 -0.722656 7.953125 -0.421875 C 7.660156 -0.117188 7.21875 0.03125 6.625 0.03125 Z M 6.515625 -0.734375 C 6.878906 -0.734375 7.144531 -0.816406 7.3125 -0.984375 C 7.476562 -1.160156 7.5625 -1.425781 7.5625 -1.78125 L 7.5625 -5.328125 C 7.5625 -5.679688 7.476562 -5.941406 7.3125 -6.109375 C 7.144531 -6.285156 6.878906 -6.375 6.515625 -6.375 L 2.984375 -6.375 C 2.628906 -6.375 2.363281 -6.285156 2.1875 -6.109375 C 2.019531 -5.941406 1.9375 -5.679688 1.9375 -5.328125 L 1.9375 -1.78125 C 1.9375 -1.425781 2.019531 -1.160156 2.1875 -0.984375 C 2.363281 -0.816406 2.628906 -0.734375 2.984375 -0.734375 Z M 6.515625 -0.734375 "/></g></g></g><g fill="#000000" fill-opacity="1"><g transform="translate(22.700981, 10.840387)"><g><path d="M 2.953125 0.03125 C 2.367188 0.03125 1.925781 -0.117188 1.625 -0.421875 C 1.320312 -0.722656 1.171875 -1.164062 1.171875 -1.75 L 1.171875 -6.984375 C 1.171875 -7.066406 1.210938 -7.109375 1.296875 -7.109375 L 1.875 -7.109375 C 1.96875 -7.109375 2.015625 -7.066406 2.015625 -6.984375 L 2.015625 -1.828125 C 2.015625 -1.472656 2.097656 -1.207031 2.265625 -1.03125 C 2.441406 -0.863281 2.707031 -0.78125 3.0625 -0.78125 L 6.15625 -0.78125 C 6.507812 -0.78125 6.769531 -0.863281 6.9375 -1.03125 C 7.113281 -1.207031 7.203125 -1.472656 7.203125 -1.828125 L 7.203125 -6.984375 C 7.203125 -7.066406 7.242188 -7.109375 7.328125 -7.109375 L 7.90625 -7.109375 C 7.988281 -7.109375 8.03125 -7.066406 8.03125 -6.984375 L 8.03125 -1.75 C 8.03125 -1.164062 7.878906 -0.722656 7.578125 -0.421875 C 7.285156 -0.117188 6.84375 0.03125 6.25 0.03125 Z M 2.953125 0.03125 "/></g></g></g><g fill="#000000" fill-opacity="1"><g transform="translate(34.203547, 10.840387)"><g><path d="M 4.5625 -3.078125 L 4.5625 -3.03125 L 7.34375 -0.25 C 7.382812 -0.207031 7.40625 -0.160156 7.40625 -0.109375 C 7.40625 -0.078125 7.390625 -0.0507812 7.359375 -0.03125 C 7.335938 -0.0078125 7.304688 0 7.265625 0 L 6.625 0 C 6.53125 0 6.445312 -0.0351562 6.375 -0.109375 L 3.375 -3.078125 L 2.015625 -3.078125 L 2.015625 -0.125 C 2.015625 -0.0390625 1.96875 0 1.875 0 L 1.296875 0 C 1.210938 0 1.171875 -0.0390625 1.171875 -0.125 L 1.171875 -6.984375 C 1.171875 -7.066406 1.210938 -7.109375 1.296875 -7.109375 L 5.8125 -7.109375 C 6.394531 -7.109375 6.8125 -6.976562 7.0625 -6.71875 C 7.320312 -6.46875 7.453125 -6.050781 7.453125 -5.46875 L 7.453125 -4.71875 C 7.453125 -4.132812 7.320312 -3.710938 7.0625 -3.453125 C 6.8125 -3.203125 6.394531 -3.078125 5.8125 -3.078125 Z M 2.015625 -6.359375 L 2.015625 -3.8125 L 5.71875 -3.8125 C 6.03125 -3.8125 6.253906 -3.882812 6.390625 -4.03125 C 6.535156 -4.175781 6.609375 -4.40625 6.609375 -4.71875 L 6.609375 -5.46875 C 6.609375 -5.78125 6.535156 -6.003906 6.390625 -6.140625 C 6.253906 -6.285156 6.03125 -6.359375 5.71875 -6.359375 Z M 2.015625 -6.359375 "/></g></g></g><g fill="#000000" fill-opacity="1"><g transform="translate(44.862726, 10.840387)"><g/></g></g><g fill="#000000" fill-opacity="1"><g transform="translate(49.933189, 10.840387)"><g><path d="M 2.875 0.03125 C 2.28125 0.03125 1.832031 -0.117188 1.53125 -0.421875 C 1.238281 -0.722656 1.09375 -1.164062 1.09375 -1.75 L 1.09375 -5.359375 C 1.09375 -5.941406 1.238281 -6.382812 1.53125 -6.6875 C 1.832031 -6.988281 2.28125 -7.140625 2.875 -7.140625 L 6.375 -7.140625 C 6.976562 -7.140625 7.425781 -6.988281 7.71875 -6.6875 C 8.019531 -6.394531 8.171875 -5.953125 8.171875 -5.359375 L 8.171875 -4.9375 C 8.171875 -4.84375 8.117188 -4.796875 8.015625 -4.796875 L 7.4375 -4.796875 C 7.351562 -4.796875 7.3125 -4.84375 7.3125 -4.9375 L 7.3125 -5.328125 C 7.3125 -5.691406 7.226562 -5.957031 7.0625 -6.125 C 6.894531 -6.289062 6.628906 -6.375 6.265625 -6.375 L 2.984375 -6.375 C 2.628906 -6.375 2.363281 -6.285156 2.1875 -6.109375 C 2.019531 -5.941406 1.9375 -5.679688 1.9375 -5.328125 L 1.9375 -1.78125 C 1.9375 -1.425781 2.019531 -1.160156 2.1875 -0.984375 C 2.363281 -0.816406 2.628906 -0.734375 2.984375 -0.734375 L 6.3125 -0.734375 C 6.675781 -0.734375 6.941406 -0.816406 7.109375 -0.984375 C 7.273438 -1.160156 7.359375 -1.425781 7.359375 -1.78125 L 7.359375 -2.84375 L 4.453125 -2.84375 C 4.359375 -2.84375 4.3125 -2.882812 4.3125 -2.96875 L 4.3125 -3.46875 C 4.3125 -3.5625 4.359375 -3.609375 4.453125 -3.609375 L 8.0625 -3.609375 C 8.15625 -3.609375 8.203125 -3.5625 8.203125 -3.46875 L 8.203125 -1.75 C 8.203125 -1.164062 8.050781 -0.722656 7.75 -0.421875 C 7.457031 -0.117188 7.015625 0.03125 6.421875 0.03125 Z M 2.875 0.03125 "/></g></g></g><g fill="#000000" fill-opacity="1"><g transform="translate(61.527204, 10.840387)"><g><path d="M 4.5625 -3.078125 L 4.5625 -3.03125 L 7.34375 -0.25 C 7.382812 -0.207031 7.40625 -0.160156 7.40625 -0.109375 C 7.40625 -0.078125 7.390625 -0.0507812 7.359375 -0.03125 C 7.335938 -0.0078125 7.304688 0 7.265625 0 L 6.625 0 C 6.53125 0 6.445312 -0.0351562 6.375 -0.109375 L 3.375 -3.078125 L 2.015625 -3.078125 L 2.015625 -0.125 C 2.015625 -0.0390625 1.96875 0 1.875 0 L 1.296875 0 C 1.210938 0 1.171875 -0.0390625 1.171875 -0.125 L 1.171875 -6.984375 C 1.171875 -7.066406 1.210938 -7.109375 1.296875 -7.109375 L 5.8125 -7.109375 C 6.394531 -7.109375 6.8125 -6.976562 7.0625 -6.71875 C 7.320312 -6.46875 7.453125 -6.050781 7.453125 -5.46875 L 7.453125 -4.71875 C 7.453125 -4.132812 7.320312 -3.710938 7.0625 -3.453125 C 6.8125 -3.203125 6.394531 -3.078125 5.8125 -3.078125 Z M 2.015625 -6.359375 L 2.015625 -3.8125 L 5.71875 -3.8125 C 6.03125 -3.8125 6.253906 -3.882812 6.390625 -4.03125 C 6.535156 -4.175781 6.609375 -4.40625 6.609375 -4.71875 L 6.609375 -5.46875 C 6.609375 -5.78125 6.535156 -6.003906 6.390625 -6.140625 C 6.253906 -6.285156 6.03125 -6.359375 5.71875 -6.359375 Z M 2.015625 -6.359375 "/></g></g></g><g fill="#000000" fill-opacity="1"><g transform="translate(72.186383, 10.840387)"><g><path d="M 7.0625 -0.75 C 7.15625 -0.75 7.203125 -0.707031 7.203125 -0.625 L 7.203125 -0.125 C 7.203125 -0.0390625 7.15625 0 7.0625 0 L 1.296875 0 C 1.210938 0 1.171875 -0.0390625 1.171875 -0.125 L 1.171875 -6.984375 C 1.171875 -7.066406 1.210938 -7.109375 1.296875 -7.109375 L 6.96875 -7.109375 C 7.050781 -7.109375 7.09375 -7.066406 7.09375 -6.984375 L 7.09375 -6.5 C 7.09375 -6.40625 7.050781 -6.359375 6.96875 -6.359375 L 2.015625 -6.359375 L 2.015625 -3.953125 L 5.828125 -3.953125 C 5.921875 -3.953125 5.96875 -3.910156 5.96875 -3.828125 L 5.96875 -3.34375 C 5.96875 -3.25 5.921875 -3.203125 5.828125 -3.203125 L 2.015625 -3.203125 L 2.015625 -0.75 Z M 7.0625 -0.75 "/></g></g></g><g fill="#000000" fill-opacity="1"><g transform="translate(82.307016, 10.840387)"><g><path d="M 7.703125 -0.203125 L 7.71875 -0.125 C 7.71875 -0.0390625 7.664062 0 7.5625 0 L 7.03125 0 C 6.976562 0 6.9375 -0.0078125 6.90625 -0.03125 C 6.875 -0.0507812 6.847656 -0.0859375 6.828125 -0.140625 L 6.015625 -1.8125 L 1.671875 -1.8125 L 0.859375 -0.140625 C 0.816406 -0.046875 0.75 0 0.65625 0 L 0.109375 0 C 0.015625 0 -0.03125 -0.0390625 -0.03125 -0.125 C -0.03125 -0.144531 -0.0234375 -0.175781 -0.015625 -0.21875 L 3.3125 -6.984375 C 3.332031 -7.023438 3.359375 -7.054688 3.390625 -7.078125 C 3.421875 -7.097656 3.460938 -7.109375 3.515625 -7.109375 L 4.15625 -7.109375 C 4.207031 -7.109375 4.25 -7.097656 4.28125 -7.078125 C 4.320312 -7.054688 4.351562 -7.023438 4.375 -6.984375 Z M 3.875 -6.203125 L 3.8125 -6.203125 L 2.953125 -4.4375 L 2.0625 -2.59375 L 5.625 -2.59375 L 4.734375 -4.4375 Z M 3.875 -6.203125 "/></g></g></g><g fill="#000000" fill-opacity="1"><g transform="translate(92.295549, 10.840387)"><g><path d="M 7.140625 -7.109375 C 7.222656 -7.109375 7.265625 -7.066406 7.265625 -6.984375 L 7.265625 -6.4375 C 7.265625 -6.351562 7.222656 -6.3125 7.140625 -6.3125 L 4.15625 -6.3125 L 4.15625 -0.125 C 4.15625 -0.0390625 4.113281 0 4.03125 0 L 3.46875 0 C 3.375 0 3.328125 -0.0390625 3.328125 -0.125 L 3.328125 -6.3125 L 0.359375 -6.3125 C 0.265625 -6.3125 0.21875 -6.351562 0.21875 -6.4375 L 0.21875 -6.984375 C 0.21875 -7.066406 0.265625 -7.109375 0.359375 -7.109375 Z M 7.140625 -7.109375 "/></g></g></g><g fill="#000000" fill-opacity="1"><g transform="translate(102.080852, 10.840387)"><g><path d="M 7.0625 -0.75 C 7.15625 -0.75 7.203125 -0.707031 7.203125 -0.625 L 7.203125 -0.125 C 7.203125 -0.0390625 7.15625 0 7.0625 0 L 1.296875 0 C 1.210938 0 1.171875 -0.0390625 1.171875 -0.125 L 1.171875 -6.984375 C 1.171875 -7.066406 1.210938 -7.109375 1.296875 -7.109375 L 6.96875 -7.109375 C 7.050781 -7.109375 7.09375 -7.066406 7.09375 -6.984375 L 7.09375 -6.5 C 7.09375 -6.40625 7.050781 -6.359375 6.96875 -6.359375 L 2.015625 -6.359375 L 2.015625 -3.953125 L 5.828125 -3.953125 C 5.921875 -3.953125 5.96875 -3.910156 5.96875 -3.828125 L 5.96875 -3.34375 C 5.96875 -3.25 5.921875 -3.203125 5.828125 -3.203125 L 2.015625 -3.203125 L 2.015625 -0.75 Z M 7.0625 -0.75 "/></g></g></g><g fill="#000000" fill-opacity="1"><g transform="translate(112.201485, 10.840387)"><g><path d="M 2.59375 0.03125 C 2.03125 0.03125 1.617188 -0.0976562 1.359375 -0.359375 C 1.097656 -0.617188 0.96875 -1.035156 0.96875 -1.609375 L 0.96875 -2.078125 C 0.96875 -2.171875 1.007812 -2.21875 1.09375 -2.21875 L 1.671875 -2.21875 C 1.765625 -2.21875 1.8125 -2.171875 1.8125 -2.078125 L 1.8125 -1.609375 C 1.8125 -1.304688 1.882812 -1.082031 2.03125 -0.9375 C 2.175781 -0.800781 2.398438 -0.734375 2.703125 -0.734375 L 5.796875 -0.734375 C 6.109375 -0.734375 6.335938 -0.800781 6.484375 -0.9375 C 6.628906 -1.082031 6.703125 -1.304688 6.703125 -1.609375 L 6.703125 -2.265625 C 6.703125 -2.578125 6.628906 -2.800781 6.484375 -2.9375 C 6.335938 -3.082031 6.109375 -3.15625 5.796875 -3.15625 L 2.75 -3.15625 C 2.1875 -3.15625 1.769531 -3.285156 1.5 -3.546875 C 1.238281 -3.804688 1.109375 -4.222656 1.109375 -4.796875 L 1.109375 -5.5 C 1.109375 -6.082031 1.238281 -6.5 1.5 -6.75 C 1.769531 -7.007812 2.1875 -7.140625 2.75 -7.140625 L 5.546875 -7.140625 C 6.117188 -7.140625 6.535156 -7.007812 6.796875 -6.75 C 7.054688 -6.5 7.1875 -6.082031 7.1875 -5.5 L 7.1875 -5.0625 C 7.1875 -4.976562 7.140625 -4.9375 7.046875 -4.9375 L 6.484375 -4.9375 C 6.390625 -4.9375 6.34375 -4.976562 6.34375 -5.0625 L 6.34375 -5.5 C 6.34375 -5.8125 6.269531 -6.035156 6.125 -6.171875 C 5.976562 -6.316406 5.75 -6.390625 5.4375 -6.390625 L 2.859375 -6.390625 C 2.546875 -6.390625 2.316406 -6.316406 2.171875 -6.171875 C 2.035156 -6.035156 1.96875 -5.8125 1.96875 -5.5 L 1.96875 -4.796875 C 1.96875 -4.492188 2.035156 -4.269531 2.171875 -4.125 C 2.316406 -3.976562 2.546875 -3.90625 2.859375 -3.90625 L 5.90625 -3.90625 C 6.476562 -3.90625 6.894531 -3.773438 7.15625 -3.515625 C 7.414062 -3.265625 7.546875 -2.851562 7.546875 -2.28125 L 7.546875 -1.609375 C 7.546875 -1.035156 7.414062 -0.617188 7.15625 -0.359375 C 6.894531 -0.0976562 6.476562 0.03125 5.90625 0.03125 Z M 2.59375 0.03125 "/></g></g></g><g fill="#000000" fill-opacity="1"><g transform="translate(122.860671, 10.840387)"><g><path d="M 7.140625 -7.109375 C 7.222656 -7.109375 7.265625 -7.066406 7.265625 -6.984375 L 7.265625 -6.4375 C 7.265625 -6.351562 7.222656 -6.3125 7.140625 -6.3125 L 4.15625 -6.3125 L 4.15625 -0.125 C 4.15625 -0.0390625 4.113281 0 4.03125 0 L 3.46875 0 C 3.375 0 3.328125 -0.0390625 3.328125 -0.125 L 3.328125 -6.3125 L 0.359375 -6.3125 C 0.265625 -6.3125 0.21875 -6.351562 0.21875 -6.4375 L 0.21875 -6.984375 C 0.21875 -7.066406 0.265625 -7.109375 0.359375 -7.109375 Z M 7.140625 -7.109375 "/></g></g></g><g fill="#000000" fill-opacity="1"><g transform="translate(132.64598, 10.840387)"><g/></g></g><g fill="#000000" fill-opacity="1"><g transform="translate(137.716449, 10.840387)"><g><path d="M 6.734375 -7.109375 C 6.816406 -7.109375 6.859375 -7.066406 6.859375 -6.984375 L 6.859375 -6.484375 C 6.859375 -6.390625 6.816406 -6.34375 6.734375 -6.34375 L 2.015625 -6.34375 L 2.015625 -3.859375 L 5.578125 -3.859375 C 5.671875 -3.859375 5.71875 -3.816406 5.71875 -3.734375 L 5.71875 -3.21875 C 5.71875 -3.132812 5.671875 -3.09375 5.578125 -3.09375 L 2.015625 -3.09375 L 2.015625 -0.125 C 2.015625 -0.0390625 1.96875 0 1.875 0 L 1.296875 0 C 1.210938 0 1.171875 -0.0390625 1.171875 -0.125 L 1.171875 -6.984375 C 1.171875 -7.066406 1.210938 -7.109375 1.296875 -7.109375 Z M 6.734375 -7.109375 "/></g></g></g><g fill="#000000" fill-opacity="1"><g transform="translate(147.20709, 10.840387)"><g><path d="M 3.734375 -6.359375 L 3.734375 -0.75 L 5.84375 -0.75 C 5.925781 -0.75 5.96875 -0.707031 5.96875 -0.625 L 5.96875 -0.125 C 5.96875 -0.0390625 5.925781 0 5.84375 0 L 0.796875 0 C 0.703125 0 0.65625 -0.0390625 0.65625 -0.125 L 0.65625 -0.625 C 0.65625 -0.707031 0.703125 -0.75 0.796875 -0.75 L 2.890625 -0.75 L 2.890625 -6.359375 L 0.796875 -6.359375 C 0.703125 -6.359375 0.65625 -6.40625 0.65625 -6.5 L 0.65625 -6.984375 C 0.65625 -7.066406 0.703125 -7.109375 0.796875 -7.109375 L 5.84375 -7.109375 C 5.925781 -7.109375 5.96875 -7.066406 5.96875 -6.984375 L 5.96875 -6.5 C 5.96875 -6.40625 5.925781 -6.359375 5.84375 -6.359375 Z M 3.734375 -6.359375 "/></g></g></g><g fill="#000000" fill-opacity="1"><g transform="translate(156.128692, 10.840387)"><g><path d="M 7.140625 -7.109375 C 7.222656 -7.109375 7.265625 -7.066406 7.265625 -6.984375 L 7.265625 -6.4375 C 7.265625 -6.351562 7.222656 -6.3125 7.140625 -6.3125 L 4.15625 -6.3125 L 4.15625 -0.125 C 4.15625 -0.0390625 4.113281 0 4.03125 0 L 3.46875 0 C 3.375 0 3.328125 -0.0390625 3.328125 -0.125 L 3.328125 -6.3125 L 0.359375 -6.3125 C 0.265625 -6.3125 0.21875 -6.351562 0.21875 -6.4375 L 0.21875 -6.984375 C 0.21875 -7.066406 0.265625 -7.109375 0.359375 -7.109375 Z M 7.140625 -7.109375 "/></g></g></g><g fill="#000000" fill-opacity="1"><g transform="translate(165.914002, 10.840387)"><g><path d="M 1.296875 0 C 1.210938 0 1.171875 -0.0390625 1.171875 -0.125 L 1.171875 -6.984375 C 1.171875 -7.066406 1.210938 -7.109375 1.296875 -7.109375 L 1.96875 -7.109375 C 2.019531 -7.109375 2.0625 -7.097656 2.09375 -7.078125 C 2.132812 -7.066406 2.175781 -7.035156 2.21875 -6.984375 L 7.125 -1.234375 L 7.1875 -1.234375 L 7.1875 -6.984375 C 7.1875 -7.066406 7.234375 -7.109375 7.328125 -7.109375 L 7.890625 -7.109375 C 7.972656 -7.109375 8.015625 -7.066406 8.015625 -6.984375 L 8.015625 -0.125 C 8.015625 -0.0390625 7.972656 0 7.890625 0 L 7.25 0 C 7.195312 0 7.148438 -0.00390625 7.109375 -0.015625 C 7.078125 -0.0351562 7.039062 -0.0703125 7 -0.125 L 2.078125 -5.90625 L 2.015625 -5.90625 L 2.015625 -0.125 C 2.015625 -0.0390625 1.96875 0 1.875 0 Z M 1.296875 0 "/></g></g></g><g fill="#000000" fill-opacity="1"><g transform="translate(177.406415, 10.840387)"><g><path d="M 7.0625 -0.75 C 7.15625 -0.75 7.203125 -0.707031 7.203125 -0.625 L 7.203125 -0.125 C 7.203125 -0.0390625 7.15625 0 7.0625 0 L 1.296875 0 C 1.210938 0 1.171875 -0.0390625 1.171875 -0.125 L 1.171875 -6.984375 C 1.171875 -7.066406 1.210938 -7.109375 1.296875 -7.109375 L 6.96875 -7.109375 C 7.050781 -7.109375 7.09375 -7.066406 7.09375 -6.984375 L 7.09375 -6.5 C 7.09375 -6.40625 7.050781 -6.359375 6.96875 -6.359375 L 2.015625 -6.359375 L 2.015625 -3.953125 L 5.828125 -3.953125 C 5.921875 -3.953125 5.96875 -3.910156 5.96875 -3.828125 L 5.96875 -3.34375 C 5.96875 -3.25 5.921875 -3.203125 5.828125 -3.203125 L 2.015625 -3.203125 L 2.015625 -0.75 Z M 7.0625 -0.75 "/></g></g></g><g fill="#000000" fill-opacity="1"><g transform="translate(187.527055, 10.840387)"><g><path d="M 2.59375 0.03125 C 2.03125 0.03125 1.617188 -0.0976562 1.359375 -0.359375 C 1.097656 -0.617188 0.96875 -1.035156 0.96875 -1.609375 L 0.96875 -2.078125 C 0.96875 -2.171875 1.007812 -2.21875 1.09375 -2.21875 L 1.671875 -2.21875 C 1.765625 -2.21875 1.8125 -2.171875 1.8125 -2.078125 L 1.8125 -1.609375 C 1.8125 -1.304688 1.882812 -1.082031 2.03125 -0.9375 C 2.175781 -0.800781 2.398438 -0.734375 2.703125 -0.734375 L 5.796875 -0.734375 C 6.109375 -0.734375 6.335938 -0.800781 6.484375 -0.9375 C 6.628906 -1.082031 6.703125 -1.304688 6.703125 -1.609375 L 6.703125 -2.265625 C 6.703125 -2.578125 6.628906 -2.800781 6.484375 -2.9375 C 6.335938 -3.082031 6.109375 -3.15625 5.796875 -3.15625 L 2.75 -3.15625 C 2.1875 -3.15625 1.769531 -3.285156 1.5 -3.546875 C 1.238281 -3.804688 1.109375 -4.222656 1.109375 -4.796875 L 1.109375 -5.5 C 1.109375 -6.082031 1.238281 -6.5 1.5 -6.75 C 1.769531 -7.007812 2.1875 -7.140625 2.75 -7.140625 L 5.546875 -7.140625 C 6.117188 -7.140625 6.535156 -7.007812 6.796875 -6.75 C 7.054688 -6.5 7.1875 -6.082031 7.1875 -5.5 L 7.1875 -5.0625 C 7.1875 -4.976562 7.140625 -4.9375 7.046875 -4.9375 L 6.484375 -4.9375 C 6.390625 -4.9375 6.34375 -4.976562 6.34375 -5.0625 L 6.34375 -5.5 C 6.34375 -5.8125 6.269531 -6.035156 6.125 -6.171875 C 5.976562 -6.316406 5.75 -6.390625 5.4375 -6.390625 L 2.859375 -6.390625 C 2.546875 -6.390625 2.316406 -6.316406 2.171875 -6.171875 C 2.035156 -6.035156 1.96875 -5.8125 1.96875 -5.5 L 1.96875 -4.796875 C 1.96875 -4.492188 2.035156 -4.269531 2.171875 -4.125 C 2.316406 -3.976562 2.546875 -3.90625 2.859375 -3.90625 L 5.90625 -3.90625 C 6.476562 -3.90625 6.894531 -3.773438 7.15625 -3.515625 C 7.414062 -3.265625 7.546875 -2.851562 7.546875 -2.28125 L 7.546875 -1.609375 C 7.546875 -1.035156 7.414062 -0.617188 7.15625 -0.359375 C 6.894531 -0.0976562 6.476562 0.03125 5.90625 0.03125 Z M 2.59375 0.03125 "/></g></g></g><g fill="#000000" fill-opacity="1"><g transform="translate(198.186241, 10.840387)"><g><path d="M 2.59375 0.03125 C 2.03125 0.03125 1.617188 -0.0976562 1.359375 -0.359375 C 1.097656 -0.617188 0.96875 -1.035156 0.96875 -1.609375 L 0.96875 -2.078125 C 0.96875 -2.171875 1.007812 -2.21875 1.09375 -2.21875 L 1.671875 -2.21875 C 1.765625 -2.21875 1.8125 -2.171875 1.8125 -2.078125 L 1.8125 -1.609375 C 1.8125 -1.304688 1.882812 -1.082031 2.03125 -0.9375 C 2.175781 -0.800781 2.398438 -0.734375 2.703125 -0.734375 L 5.796875 -0.734375 C 6.109375 -0.734375 6.335938 -0.800781 6.484375 -0.9375 C 6.628906 -1.082031 6.703125 -1.304688 6.703125 -1.609375 L 6.703125 -2.265625 C 6.703125 -2.578125 6.628906 -2.800781 6.484375 -2.9375 C 6.335938 -3.082031 6.109375 -3.15625 5.796875 -3.15625 L 2.75 -3.15625 C 2.1875 -3.15625 1.769531 -3.285156 1.5 -3.546875 C 1.238281 -3.804688 1.109375 -4.222656 1.109375 -4.796875 L 1.109375 -5.5 C 1.109375 -6.082031 1.238281 -6.5 1.5 -6.75 C 1.769531 -7.007812 2.1875 -7.140625 2.75 -7.140625 L 5.546875 -7.140625 C 6.117188 -7.140625 6.535156 -7.007812 6.796875 -6.75 C 7.054688 -6.5 7.1875 -6.082031 7.1875 -5.5 L 7.1875 -5.0625 C 7.1875 -4.976562 7.140625 -4.9375 7.046875 -4.9375 L 6.484375 -4.9375 C 6.390625 -4.9375 6.34375 -4.976562 6.34375 -5.0625 L 6.34375 -5.5 C 6.34375 -5.8125 6.269531 -6.035156 6.125 -6.171875 C 5.976562 -6.316406 5.75 -6.390625 5.4375 -6.390625 L 2.859375 -6.390625 C 2.546875 -6.390625 2.316406 -6.316406 2.171875 -6.171875 C 2.035156 -6.035156 1.96875 -5.8125 1.96875 -5.5 L 1.96875 -4.796875 C 1.96875 -4.492188 2.035156 -4.269531 2.171875 -4.125 C 2.316406 -3.976562 2.546875 -3.90625 2.859375 -3.90625 L 5.90625 -3.90625 C 6.476562 -3.90625 6.894531 -3.773438 7.15625 -3.515625 C 7.414062 -3.265625 7.546875 -2.851562 7.546875 -2.28125 L 7.546875 -1.609375 C 7.546875 -1.035156 7.414062 -0.617188 7.15625 -0.359375 C 6.894531 -0.0976562 6.476562 0.03125 5.90625 0.03125 Z M 2.59375 0.03125 "/></g></g></g><g fill="#000000" fill-opacity="1"><g transform="translate(208.845426, 10.840387)"><g/></g></g><g fill="#000000" fill-opacity="1"><g transform="translate(213.915895, 10.840387)"><g><path d="M 2.875 0.03125 C 2.28125 0.03125 1.832031 -0.117188 1.53125 -0.421875 C 1.238281 -0.722656 1.09375 -1.164062 1.09375 -1.75 L 1.09375 -5.359375 C 1.09375 -5.941406 1.238281 -6.382812 1.53125 -6.6875 C 1.832031 -6.988281 2.28125 -7.140625 2.875 -7.140625 L 6.25 -7.140625 C 6.832031 -7.140625 7.273438 -6.988281 7.578125 -6.6875 C 7.878906 -6.382812 8.03125 -5.941406 8.03125 -5.359375 L 8.03125 -4.921875 C 8.03125 -4.828125 7.984375 -4.78125 7.890625 -4.78125 L 7.3125 -4.78125 C 7.226562 -4.78125 7.1875 -4.828125 7.1875 -4.921875 L 7.1875 -5.328125 C 7.1875 -5.691406 7.101562 -5.957031 6.9375 -6.125 C 6.769531 -6.289062 6.503906 -6.375 6.140625 -6.375 L 2.984375 -6.375 C 2.628906 -6.375 2.363281 -6.285156 2.1875 -6.109375 C 2.019531 -5.941406 1.9375 -5.679688 1.9375 -5.328125 L 1.9375 -1.78125 C 1.9375 -1.425781 2.019531 -1.160156 2.1875 -0.984375 C 2.363281 -0.816406 2.628906 -0.734375 2.984375 -0.734375 L 6.140625 -0.734375 C 6.503906 -0.734375 6.769531 -0.816406 6.9375 -0.984375 C 7.101562 -1.160156 7.1875 -1.425781 7.1875 -1.78125 L 7.1875 -2.203125 C 7.1875 -2.296875 7.226562 -2.34375 7.3125 -2.34375 L 7.890625 -2.34375 C 7.984375 -2.34375 8.03125 -2.296875 8.03125 -2.203125 L 8.03125 -1.75 C 8.03125 -1.164062 7.878906 -0.722656 7.578125 -0.421875 C 7.273438 -0.117188 6.832031 0.03125 6.25 0.03125 Z M 2.875 0.03125 "/></g></g></g><g fill="#000000" fill-opacity="1"><g transform="translate(225.255871, 10.840387)"><g><path d="M 7.9375 -7.109375 C 8.03125 -7.109375 8.078125 -7.066406 8.078125 -6.984375 L 8.078125 -0.125 C 8.078125 -0.0390625 8.03125 0 7.9375 0 L 7.375 0 C 7.28125 0 7.234375 -0.0390625 7.234375 -0.125 L 7.234375 -3.171875 L 2.015625 -3.171875 L 2.015625 -0.125 C 2.015625 -0.0390625 1.96875 0 1.875 0 L 1.296875 0 C 1.210938 0 1.171875 -0.0390625 1.171875 -0.125 L 1.171875 -6.984375 C 1.171875 -7.066406 1.210938 -7.109375 1.296875 -7.109375 L 1.875 -7.109375 C 1.96875 -7.109375 2.015625 -7.066406 2.015625 -6.984375 L 2.015625 -3.96875 L 7.234375 -3.96875 L 7.234375 -6.984375 C 7.234375 -7.066406 7.28125 -7.109375 7.375 -7.109375 Z M 7.9375 -7.109375 "/></g></g></g><g fill="#000000" fill-opacity="1"><g transform="translate(236.799088, 10.840387)"><g><path d="M 7.703125 -0.203125 L 7.71875 -0.125 C 7.71875 -0.0390625 7.664062 0 7.5625 0 L 7.03125 0 C 6.976562 0 6.9375 -0.0078125 6.90625 -0.03125 C 6.875 -0.0507812 6.847656 -0.0859375 6.828125 -0.140625 L 6.015625 -1.8125 L 1.671875 -1.8125 L 0.859375 -0.140625 C 0.816406 -0.046875 0.75 0 0.65625 0 L 0.109375 0 C 0.015625 0 -0.03125 -0.0390625 -0.03125 -0.125 C -0.03125 -0.144531 -0.0234375 -0.175781 -0.015625 -0.21875 L 3.3125 -6.984375 C 3.332031 -7.023438 3.359375 -7.054688 3.390625 -7.078125 C 3.421875 -7.097656 3.460938 -7.109375 3.515625 -7.109375 L 4.15625 -7.109375 C 4.207031 -7.109375 4.25 -7.097656 4.28125 -7.078125 C 4.320312 -7.054688 4.351562 -7.023438 4.375 -6.984375 Z M 3.875 -6.203125 L 3.8125 -6.203125 L 2.953125 -4.4375 L 2.0625 -2.59375 L 5.625 -2.59375 L 4.734375 -4.4375 Z M 3.875 -6.203125 "/></g></g></g><g fill="#000000" fill-opacity="1"><g transform="translate(246.787614, 10.840387)"><g><path d="M 1.296875 0 C 1.210938 0 1.171875 -0.0390625 1.171875 -0.125 L 1.171875 -6.984375 C 1.171875 -7.066406 1.210938 -7.109375 1.296875 -7.109375 L 1.875 -7.109375 C 1.96875 -7.109375 2.015625 -7.066406 2.015625 -6.984375 L 2.015625 -0.796875 L 6.765625 -0.796875 C 6.847656 -0.796875 6.890625 -0.753906 6.890625 -0.671875 L 6.890625 -0.125 C 6.890625 -0.0390625 6.847656 0 6.765625 0 Z M 1.296875 0 "/></g></g></g><g fill="#000000" fill-opacity="1"><g transform="translate(256.237607, 10.840387)"><g><path d="M 1.296875 0 C 1.210938 0 1.171875 -0.0390625 1.171875 -0.125 L 1.171875 -6.984375 C 1.171875 -7.066406 1.210938 -7.109375 1.296875 -7.109375 L 1.875 -7.109375 C 1.96875 -7.109375 2.015625 -7.066406 2.015625 -6.984375 L 2.015625 -0.796875 L 6.765625 -0.796875 C 6.847656 -0.796875 6.890625 -0.753906 6.890625 -0.671875 L 6.890625 -0.125 C 6.890625 -0.0390625 6.847656 0 6.765625 0 Z M 1.296875 0 "/></g></g></g><g fill="#000000" fill-opacity="1"><g transform="translate(265.687599, 10.840387)"><g><path d="M 7.0625 -0.75 C 7.15625 -0.75 7.203125 -0.707031 7.203125 -0.625 L 7.203125 -0.125 C 7.203125 -0.0390625 7.15625 0 7.0625 0 L 1.296875 0 C 1.210938 0 1.171875 -0.0390625 1.171875 -0.125 L 1.171875 -6.984375 C 1.171875 -7.066406 1.210938 -7.109375 1.296875 -7.109375 L 6.96875 -7.109375 C 7.050781 -7.109375 7.09375 -7.066406 7.09375 -6.984375 L 7.09375 -6.5 C 7.09375 -6.40625 7.050781 -6.359375 6.96875 -6.359375 L 2.015625 -6.359375 L 2.015625 -3.953125 L 5.828125 -3.953125 C 5.921875 -3.953125 5.96875 -3.910156 5.96875 -3.828125 L 5.96875 -3.34375 C 5.96875 -3.25 5.921875 -3.203125 5.828125 -3.203125 L 2.015625 -3.203125 L 2.015625 -0.75 Z M 7.0625 -0.75 "/></g></g></g><g fill="#000000" fill-opacity="1"><g transform="translate(275.808226, 10.840387)"><g><path d="M 1.296875 0 C 1.210938 0 1.171875 -0.0390625 1.171875 -0.125 L 1.171875 -6.984375 C 1.171875 -7.066406 1.210938 -7.109375 1.296875 -7.109375 L 1.96875 -7.109375 C 2.019531 -7.109375 2.0625 -7.097656 2.09375 -7.078125 C 2.132812 -7.066406 2.175781 -7.035156 2.21875 -6.984375 L 7.125 -1.234375 L 7.1875 -1.234375 L 7.1875 -6.984375 C 7.1875 -7.066406 7.234375 -7.109375 7.328125 -7.109375 L 7.890625 -7.109375 C 7.972656 -7.109375 8.015625 -7.066406 8.015625 -6.984375 L 8.015625 -0.125 C 8.015625 -0.0390625 7.972656 0 7.890625 0 L 7.25 0 C 7.195312 0 7.148438 -0.00390625 7.109375 -0.015625 C 7.078125 -0.0351562 7.039062 -0.0703125 7 -0.125 L 2.078125 -5.90625 L 2.015625 -5.90625 L 2.015625 -0.125 C 2.015625 -0.0390625 1.96875 0 1.875 0 Z M 1.296875 0 "/></g></g></g><g fill="#000000" fill-opacity="1"><g transform="translate(287.30064, 10.840387)"><g><path d="M 2.875 0.03125 C 2.28125 0.03125 1.832031 -0.117188 1.53125 -0.421875 C 1.238281 -0.722656 1.09375 -1.164062 1.09375 -1.75 L 1.09375 -5.359375 C 1.09375 -5.941406 1.238281 -6.382812 1.53125 -6.6875 C 1.832031 -6.988281 2.28125 -7.140625 2.875 -7.140625 L 6.375 -7.140625 C 6.976562 -7.140625 7.425781 -6.988281 7.71875 -6.6875 C 8.019531 -6.394531 8.171875 -5.953125 8.171875 -5.359375 L 8.171875 -4.9375 C 8.171875 -4.84375 8.117188 -4.796875 8.015625 -4.796875 L 7.4375 -4.796875 C 7.351562 -4.796875 7.3125 -4.84375 7.3125 -4.9375 L 7.3125 -5.328125 C 7.3125 -5.691406 7.226562 -5.957031 7.0625 -6.125 C 6.894531 -6.289062 6.628906 -6.375 6.265625 -6.375 L 2.984375 -6.375 C 2.628906 -6.375 2.363281 -6.285156 2.1875 -6.109375 C 2.019531 -5.941406 1.9375 -5.679688 1.9375 -5.328125 L 1.9375 -1.78125 C 1.9375 -1.425781 2.019531 -1.160156 2.1875 -0.984375 C 2.363281 -0.816406 2.628906 -0.734375 2.984375 -0.734375 L 6.3125 -0.734375 C 6.675781 -0.734375 6.941406 -0.816406 7.109375 -0.984375 C 7.273438 -1.160156 7.359375 -1.425781 7.359375 -1.78125 L 7.359375 -2.84375 L 4.453125 -2.84375 C 4.359375 -2.84375 4.3125 -2.882812 4.3125 -2.96875 L 4.3125 -3.46875 C 4.3125 -3.5625 4.359375 -3.609375 4.453125 -3.609375 L 8.0625 -3.609375 C 8.15625 -3.609375 8.203125 -3.5625 8.203125 -3.46875 L 8.203125 -1.75 C 8.203125 -1.164062 8.050781 -0.722656 7.75 -0.421875 C 7.457031 -0.117188 7.015625 0.03125 6.421875 0.03125 Z M 2.875 0.03125 "/></g></g></g><g fill="#000000" fill-opacity="1"><g transform="translate(298.894661, 10.840387)"><g><path d="M 7.0625 -0.75 C 7.15625 -0.75 7.203125 -0.707031 7.203125 -0.625 L 7.203125 -0.125 C 7.203125 -0.0390625 7.15625 0 7.0625 0 L 1.296875 0 C 1.210938 0 1.171875 -0.0390625 1.171875 -0.125 L 1.171875 -6.984375 C 1.171875 -7.066406 1.210938 -7.109375 1.296875 -7.109375 L 6.96875 -7.109375 C 7.050781 -7.109375 7.09375 -7.066406 7.09375 -6.984375 L 7.09375 -6.5 C 7.09375 -6.40625 7.050781 -6.359375 6.96875 -6.359375 L 2.015625 -6.359375 L 2.015625 -3.953125 L 5.828125 -3.953125 C 5.921875 -3.953125 5.96875 -3.910156 5.96875 -3.828125 L 5.96875 -3.34375 C 5.96875 -3.25 5.921875 -3.203125 5.828125 -3.203125 L 2.015625 -3.203125 L 2.015625 -0.75 Z M 7.0625 -0.75 "/></g></g></g></g></g></g></svg>