<svg width="135" height="106" viewBox="0 0 135 106" fill="none" xmlns="http://www.w3.org/2000/svg">
<path d="M106.073 38.5459H86.6331C89.7209 34.4997 91.6049 29.5739 91.6049 24.0918C91.6049 10.7835 80.8097 0 67.4976 0C54.1855 0 43.3903 10.7883 43.3903 24.0918C43.3903 29.5739 45.2791 34.4997 48.3621 38.5459H28.9269L0 106H135L106.073 38.5459ZM67.5024 38.5459C59.5142 38.5459 53.0389 32.0748 53.0389 24.0918C53.0389 16.1135 59.5189 9.63766 67.5024 9.63766C75.4858 9.63766 81.9658 16.1087 81.9658 24.0918C81.9658 32.0748 75.4906 38.5459 67.5024 38.5459Z" fill="white"/>
</svg>
