<svg width="89" height="111" viewBox="0 0 89 111" fill="none" xmlns="http://www.w3.org/2000/svg">
<path d="M68.456 10.8707C68.456 5.20696 63.8629 0.611816 58.2016 0.611816C52.5404 0.611816 47.9473 5.20696 47.9473 10.8707C47.9473 16.5345 52.5404 21.1297 58.2016 21.1297C63.8629 21.1297 68.456 16.5345 68.456 10.8707ZM26.9473 38.121C29.0622 36.0051 31.9463 34.8082 34.9585 34.8082C35.3644 34.8082 35.7703 34.8296 36.1548 34.8723L29.4895 54.8986C27.5027 60.883 29.8527 67.4658 35.2148 70.8213L53.6299 82.3412L48.2036 101.32C47.1569 104.954 49.2718 108.737 52.9036 109.784C56.5353 110.831 60.3166 108.715 61.3634 105.082L67.4946 83.6236C68.755 79.2208 66.9392 74.5188 63.0724 72.1037L50.9381 64.5164L57.5394 46.9052L58.6289 49.5341C61.8334 57.1855 69.2891 62.1654 77.578 62.1654H82.1284C85.9097 62.1654 88.9646 59.1091 88.9646 55.3261C88.9646 51.5431 85.9097 48.4868 82.1284 48.4868H77.578C74.8222 48.4868 72.3227 46.8197 71.2759 44.2764L69.93 41.0704C66.811 33.5686 60.5088 27.8407 52.7326 25.447L42.3288 22.241C39.9575 21.5144 37.4793 21.1297 34.9798 21.1297C28.3572 21.1297 21.991 23.7585 17.3125 28.4605L12.3562 33.3976C9.68582 36.0692 9.68582 40.4079 12.3562 43.0795C15.0266 45.7511 19.3633 45.7511 22.0337 43.0795L26.9686 38.1424L26.9473 38.121ZM19.577 75.8439H6.92997C3.14869 75.8439 0.09375 78.9002 0.09375 82.6832C0.09375 86.4662 3.14869 89.5225 6.92997 89.5225H21.7987C25.8578 89.5225 29.5322 87.1287 31.1772 83.4312L33.634 77.8957L31.6045 76.6133C27.8659 74.2837 25.0887 70.8854 23.5078 67.017L19.577 75.8439Z" fill="white"/>
</svg>
