<svg width="98" height="97" viewBox="0 0 98 97" fill="none" xmlns="http://www.w3.org/2000/svg">
<g clip-path="url(#clip0_171_6)">
<path d="M73.5 33.3438C73.5 46.7381 62.5324 57.5938 49 57.5938C35.4676 57.5938 24.5 46.7381 24.5 33.3438C24.5 19.9494 35.4676 9.09375 49 9.09375C62.5324 9.09375 73.5 19.9494 73.5 33.3438ZM74.993 12.125C68.8105 4.71738 59.4699 0 49 0C38.5301 0 29.1895 4.71738 23.007 12.125H12.25C5.49336 12.125 0 17.5623 0 24.25V84.875C0 91.5627 5.49336 97 12.25 97H85.75C92.5066 97 98 91.5627 98 84.875V24.25C98 17.5623 92.5066 12.125 85.75 12.125H74.993ZM56.6562 42.4375C56.6562 40.4293 55.8715 38.6105 54.5699 37.2465L61.0012 22.4123C61.6711 20.8777 60.9437 19.0969 59.3934 18.4338C57.843 17.7707 56.0437 18.4906 55.3738 20.0252L48.9426 34.8594C44.7316 34.8783 41.3438 38.2695 41.3438 42.4375C41.3438 46.6244 44.7699 50.0156 49 50.0156C53.2301 50.0156 56.6562 46.6244 56.6562 42.4375Z" fill="white"/>
</g>
<defs>
<clipPath id="clip0_171_6">
<rect width="98" height="97" fill="white"/>
</clipPath>
</defs>
</svg>
